<?xml version="1.0" encoding="UTF-8"?>
<svg id="Capa_1" xmlns="http://www.w3.org/2000/svg" version="1.1" viewBox="0 0 800 800">
  <!-- Generator: Adobe Illustrator 30.1.0, SVG Export Plug-In . SVG Version: 2.1.1 Build 136)  -->
  <defs>
    <style>
      .st0 {
        fill: #fff;
        fill-rule: evenodd;
      }
    </style>
  </defs>
  <path class="st0" d="M666.67,33.33c55.23,0,100,44.77,100,100v533.33c0,55.23-44.77,100-100,100H133.33c-55.23,0-100-44.77-100-100V133.33c0-55.23,44.77-100,100-100h533.33ZM666.67,100c18.41,0,33.33,14.92,33.33,33.33v533.33c0,18.41-14.92,33.33-33.33,33.33h-166.67v-233.34h69.21c14.35,0,27.08-9.18,31.62-22.79l14.77-44.3c5.4-16.19-6.65-32.91-23.72-32.91h-91.88v-66.67c0-16.67,16.67-33.33,33.33-33.33h66.67c18.41,0,33.33-14.92,33.33-33.33v-22.87c0-10.77-6.88-20.42-17.29-23.17-43.69-11.53-82.71-11.53-82.71-11.53-83.33,0-133.33,57.57-133.33,107.57v83.33h-66.67c-18.41,0-33.33,14.92-33.33,33.33v33.33c0,18.41,14.92,33.33,33.33,33.33h66.67v233.34H133.33c-18.41,0-33.33-14.92-33.33-33.33V133.33c0-18.41,14.92-33.33,33.33-33.33h533.33Z"/>
</svg>