<?xml version="1.0" encoding="UTF-8"?>
<svg id="Capa_1" xmlns="http://www.w3.org/2000/svg" version="1.1" viewBox="0 0 800 800">
  <!-- Generator: Adobe Illustrator 30.1.0, SVG Export Plug-In . SVG Version: 2.1.1 Build 136)  -->
  <defs>
    <style>
      .st0 {
        fill: #fff;
      }
    </style>
  </defs>
  <path class="st0" d="M633.33,133.33H166.67c-55.14,0-100,44.86-100,100v333.33c0,55.14,44.86,100,100,100h466.67c55.14,0,100-44.86,100-100V233.33c0-55.14-44.86-100-100-100ZM633.33,200c6.07,0,11.75,1.64,16.66,4.48-1.14.66-2.25,1.38-3.32,2.19l-206.67,155c-23.55,17.66-56.45,17.66-80,0l-206.67-155c-1.08-.81-2.19-1.53-3.32-2.19,4.91-2.84,10.59-4.48,16.66-4.48h466.67ZM633.33,600H166.67c-18.38,0-33.33-14.95-33.33-33.33v-291.67l186.67,140c23.26,17.45,50.92,26.67,80,26.67s56.74-9.22,80-26.67l186.67-140v291.67c0,18.38-14.95,33.33-33.33,33.33Z"/>
</svg>