<?xml version="1.0" encoding="UTF-8"?>
<svg id="Capa_1" xmlns="http://www.w3.org/2000/svg" version="1.1" viewBox="0 0 800 800">
  <!-- Generator: Adobe Illustrator 30.1.0, SVG Export Plug-In . SVG Version: 2.1.1 Build 136)  -->
  <defs>
    <style>
      .st0 {
        fill: #fff;
      }
    </style>
  </defs>
  <path class="st0" d="M661,266.67v17.33c.31,50.34-9.38,100.24-28.5,146.81-19.12,46.57-47.3,88.87-82.89,124.47-35.6,35.6-77.9,63.77-124.47,82.89-46.57,19.12-96.47,28.81-146.81,28.5-73.26.21-145.03-20.74-206.67-60.33h33.33c60.45,0,119.14-20.31,166.67-57.67-28.17-.25-55.53-9.42-78.17-26.19s-39.38-40.27-47.83-67.15c8.49,1.35,17.07,2.02,25.67,2,11.91-.09,23.76-1.54,35.33-4.33-30.12-6.15-57.18-22.51-76.62-46.32-19.44-23.81-30.05-53.61-30.05-84.34,18.64,10.28,39.4,16.1,60.67,17-18.76-12.41-34.14-29.3-44.73-49.15-10.59-19.85-16.07-42.02-15.94-64.52.04-23.42,6.25-46.41,18-66.67,33.72,41.59,75.81,75.63,123.53,99.92s100.01,38.29,153.48,41.08c-2.12-10.09-3.23-20.36-3.33-30.67-.87-27.44,6.75-54.47,21.82-77.42,15.07-22.94,36.86-40.68,62.38-50.78,25.52-10.1,53.55-12.08,80.24-5.66,26.69,6.42,50.75,20.92,68.89,41.52,30.17-6.06,59.05-17.34,85.33-33.33-10.04,31.11-31.15,57.44-59.33,74,26.79-2.9,52.98-9.86,77.67-20.67-18.28,26.7-40.8,50.23-66.67,69.67h-1Z"/>
</svg>