<?xml version="1.0" encoding="UTF-8"?>
<svg id="Capa_1" data-name="Capa 1" xmlns="http://www.w3.org/2000/svg" viewBox="0 0 30.24 24">
  <defs>
    <style>
      .cls-1 {
        fill: #fff;
      }
    </style>
  </defs>
  <path class="cls-1" d="M30.16,13.78c-.83,4.26-3.01,7.77-6.49,10.11-1.67-1.3-3.27-2.21-5.35-2.71C3.08,30.99-8.58,5.57,8.62.49c7.23-1.89,14.31,3.32,14.65,10.81,2.43.55,4.7,1.21,6.88,2.48ZM16.35,2.13c-3.19-1.63-6.72-1.53-9.54.07,3.08,1.47,6.69,1.6,9.54-.07ZM5.18,6.96c.88-1.56,1.45-2.3,2.41-3.42l-1.9-.86c-1.3.97-2.18,1.78-3.1,3.21.96.47,1.87.85,2.59,1.06ZM20.74,5.81c-1.19-1.4-1.88-2.07-3.12-3.15l-2.02.92c1.07,1.16,1.65,1.91,2.4,3.33.87-.16,1.68-.49,2.73-1.1ZM11.2,7.96l-.02-3.76-2.65-.28c-1,.95-1.71,1.92-2.39,3.32,1.74.48,3.35.67,5.06.72ZM17.12,7.26c-.74-1.61-1.45-2.41-2.53-3.42l-2.51.42.05,3.73c1.75-.13,3.12-.3,5-.73ZM4.29,11.23l.51-3.33-2.75-1.24c-.74,1.59-1.15,2.91-1.17,4.59h3.42ZM22.46,11.24c-.2-1.8-.55-3.19-1.29-4.55l-2.73,1.18.53,3.35h3.49ZM11.17,11.27c.02-1,0-1.88-.1-2.39l-5.35-.65-.51,3,5.96.04ZM18.01,11.25c-.12-1.15-.28-2.12-.52-3.01l-5.34.66v2.36s5.86,0,5.86,0ZM4.81,15.41l-.56-3.32H.84c.1,1.69.46,3.25,1.31,4.58l2.66-1.26ZM11.19,14.36l-.03-2.27-5.94.02c.15,1.1.34,2.17.55,3l5.42-.74ZM6.75,21.19c6.75,3.59,15.36-1.21,15.63-9.11h-10.26s-.06,7.8-.06,7.8c-2.08.06-3.69.31-5.31,1.3ZM24.7,16.91l1.33-3.98-2.65-.71-.89,3.91,2.22.78ZM27.73,18.41c.7-1.79,1.02-2.66,1.47-4.2l-2.31-1-1.38,4.09,2.21,1.11ZM11.22,19.1l-.06-3.75c-1.75.09-3.21.29-4.98.68.55,1.44,1.38,2.57,2.55,3.44l2.48-.37ZM7.6,19.79c-1.14-1.36-1.68-2.12-2.5-3.47l-2.5,1.09c.83,1.4,1.81,2.26,3.12,3.25l1.89-.86ZM21.42,21.04c1.15-1.03,1.91-2.05,2.72-3.22-.69-.39-1.42-.66-2.11-.79-.91,1.36-1.64,2.27-2.69,3.47.33.22,1.61.78,2.08.55ZM23.81,22.9c1.38-1.22,2.31-2.23,3.33-3.7l-2.11-1.12c-.93,1.33-1.81,2.39-2.98,3.6l1.76,1.22Z"/>
</svg>